<svg xmlns="http://www.w3.org/2000/svg" xmlns:xlink="http://www.w3.org/1999/xlink" version="1.1" width="256" height="256" viewBox="0 0 256 256" xml:space="preserve">
<g style="stroke: none; stroke-width: 0; stroke-dasharray: none; stroke-linecap: butt; stroke-linejoin: miter; stroke-miterlimit: 10; fill: none; fill-rule: nonzero; opacity: 1;" transform="translate(1.4065934065934016 1.4065934065934016) scale(2.81 2.81)">
	<path d="M 52.631 45.396 c -0.197 0 -0.395 -0.059 -0.564 -0.179 L 45 40.24 l -7.068 4.978 c -0.342 0.243 -0.802 0.238 -1.143 -0.011 c -0.339 -0.249 -0.481 -0.686 -0.352 -1.087 l 2.632 -8.215 l -6.906 -5.083 c -0.341 -0.25 -0.481 -0.691 -0.35 -1.093 s 0.507 -0.673 0.93 -0.673 h 8.549 l 2.781 -8.275 c 0.134 -0.398 0.507 -0.667 0.927 -0.667 c 0.42 0 0.793 0.268 0.927 0.667 l 2.781 8.275 h 8.549 c 0.422 0 0.798 0.271 0.93 0.673 c 0.132 0.402 -0.01 0.843 -0.35 1.093 l -6.907 5.082 l 2.632 8.215 c 0.128 0.4 -0.013 0.838 -0.353 1.087 C 53.038 45.332 52.835 45.396 52.631 45.396 z" style="stroke: none; stroke-width: 1; stroke-dasharray: none; stroke-linecap: butt; stroke-linejoin: miter; stroke-miterlimit: 10; fill: rgb(250,180,0); fill-rule: nonzero; opacity: 1;" transform=" matrix(1 0 0 1 0 0) " stroke-linecap="round"/>
	<path d="M 68.154 45.396 c -0.203 0 -0.407 -0.064 -0.579 -0.19 c -0.339 -0.249 -0.481 -0.686 -0.353 -1.087 l 2.632 -8.215 l -6.906 -5.083 c -0.34 -0.25 -0.481 -0.691 -0.35 -1.093 c 0.132 -0.402 0.507 -0.673 0.93 -0.673 h 8.548 l 2.781 -8.275 c 0.134 -0.398 0.507 -0.667 0.928 -0.667 c 0.42 0 0.793 0.268 0.928 0.666 l 2.782 8.275 h 8.548 c 0.422 0 0.798 0.271 0.93 0.673 s -0.01 0.843 -0.35 1.093 l -6.906 5.083 l 2.632 8.215 c 0.128 0.4 -0.013 0.838 -0.353 1.087 c -0.338 0.249 -0.799 0.255 -1.143 0.011 l -7.068 -4.978 l -7.067 4.978 C 68.549 45.337 68.351 45.396 68.154 45.396 z" style="stroke: none; stroke-width: 1; stroke-dasharray: none; stroke-linecap: butt; stroke-linejoin: miter; stroke-miterlimit: 10; fill: rgb(250,180,0); fill-rule: nonzero; opacity: 1;" transform=" matrix(1 0 0 1 0 0) " stroke-linecap="round"/>
	<path d="M 6.583 45.396 c -0.203 0 -0.407 -0.064 -0.579 -0.19 c -0.339 -0.249 -0.481 -0.686 -0.352 -1.087 l 2.632 -8.215 l -6.906 -5.083 c -0.341 -0.25 -0.481 -0.691 -0.35 -1.093 s 0.507 -0.673 0.93 -0.673 h 8.549 l 2.781 -8.275 c 0.134 -0.398 0.507 -0.667 0.927 -0.667 c 0.42 0 0.793 0.268 0.927 0.667 l 2.781 8.275 h 8.549 c 0.423 0 0.798 0.271 0.93 0.673 c 0.132 0.402 -0.009 0.843 -0.35 1.093 l -6.906 5.083 l 2.632 8.215 c 0.128 0.4 -0.013 0.838 -0.352 1.087 c -0.34 0.248 -0.8 0.254 -1.143 0.011 l -7.068 -4.978 l -7.068 4.978 C 6.977 45.337 6.78 45.396 6.583 45.396 z" style="stroke: none; stroke-width: 1; stroke-dasharray: none; stroke-linecap: butt; stroke-linejoin: miter; stroke-miterlimit: 10; fill: rgb(250,180,0); fill-rule: nonzero; opacity: 1;" transform=" matrix(1 0 0 1 0 0) " stroke-linecap="round"/>
	<path d="M 37.239 69.886 c -0.197 0 -0.394 -0.059 -0.563 -0.179 l -7.068 -4.978 l -7.068 4.978 c -0.342 0.243 -0.802 0.239 -1.143 -0.011 c -0.339 -0.248 -0.481 -0.686 -0.352 -1.086 l 2.632 -8.216 l -6.906 -5.082 c -0.341 -0.251 -0.481 -0.692 -0.35 -1.093 c 0.132 -0.402 0.507 -0.674 0.93 -0.674 h 8.549 l 2.782 -8.275 c 0.134 -0.398 0.507 -0.666 0.927 -0.666 l 0 0 c 0.42 0 0.793 0.268 0.927 0.666 l 2.781 8.275 h 8.549 c 0.423 0 0.798 0.271 0.93 0.674 c 0.132 0.401 -0.009 0.842 -0.35 1.093 l -6.906 5.082 l 2.632 8.216 c 0.128 0.4 -0.013 0.838 -0.352 1.086 C 37.646 69.823 37.442 69.886 37.239 69.886 z" style="stroke: none; stroke-width: 1; stroke-dasharray: none; stroke-linecap: butt; stroke-linejoin: miter; stroke-miterlimit: 10; fill: rgb(250,180,0); fill-rule: nonzero; opacity: 1;" transform=" matrix(1 0 0 1 0 0) " stroke-linecap="round"/>
	<path d="M 52.761 69.886 c -0.203 0 -0.407 -0.063 -0.579 -0.19 c -0.339 -0.248 -0.481 -0.686 -0.353 -1.086 l 2.632 -8.216 l -6.906 -5.082 c -0.34 -0.251 -0.481 -0.692 -0.35 -1.093 c 0.132 -0.402 0.507 -0.674 0.93 -0.674 h 8.549 l 2.781 -8.275 c 0.134 -0.398 0.507 -0.666 0.928 -0.666 c 0.42 0 0.794 0.268 0.928 0.666 l 2.781 8.275 h 8.548 c 0.422 0 0.798 0.271 0.93 0.674 c 0.132 0.401 -0.01 0.842 -0.35 1.093 l -6.906 5.082 l 2.632 8.216 c 0.128 0.4 -0.013 0.838 -0.353 1.086 c -0.339 0.25 -0.799 0.254 -1.143 0.011 l -7.067 -4.978 l -7.068 4.978 C 53.156 69.827 52.958 69.886 52.761 69.886 z" style="stroke: none; stroke-width: 1; stroke-dasharray: none; stroke-linecap: butt; stroke-linejoin: miter; stroke-miterlimit: 10; fill: rgb(250,180,0); fill-rule: nonzero; opacity: 1;" transform=" matrix(1 0 0 1 0 0) " stroke-linecap="round"/>
	<path d="M 37.371 46.376 c -0.406 0 -0.813 -0.127 -1.16 -0.38 c -0.68 -0.5 -0.963 -1.374 -0.706 -2.175 l 2.417 -7.545 l -6.34 -4.666 c -0.683 -0.502 -0.963 -1.38 -0.699 -2.186 c 0.264 -0.805 1.011 -1.346 1.859 -1.346 h 7.846 l 2.557 -7.609 c 0.267 -0.797 1.013 -1.333 1.854 -1.333 c 0.842 0 1.587 0.536 1.854 1.334 l 2.557 7.608 h 7.846 c 0.847 0 1.594 0.541 1.859 1.346 c 0.264 0.805 -0.017 1.683 -0.698 2.186 l -6.341 4.666 l 2.417 7.546 c 0.257 0.802 -0.027 1.676 -0.705 2.174 c -0.663 0.488 -1.611 0.498 -2.286 0.022 L 45 41.436 l -6.505 4.581 C 38.159 46.256 37.765 46.376 37.371 46.376 z M 32.743 30.034 l 6.906 5.083 c 0.338 0.249 0.48 0.686 0.352 1.086 l -2.632 8.215 l 7.068 -4.978 c 0.337 -0.238 0.789 -0.238 1.126 0 l 7.066 4.977 l -2.63 -8.214 c -0.128 -0.4 0.013 -0.837 0.352 -1.087 l 6.907 -5.082 h -8.549 c -0.42 0 -0.794 -0.268 -0.928 -0.666 L 45 21.092 l -2.781 8.275 c -0.134 0.398 -0.507 0.666 -0.927 0.666 H 32.743 z" style="stroke: none; stroke-width: 1; stroke-dasharray: none; stroke-linecap: butt; stroke-linejoin: miter; stroke-miterlimit: 10; fill: rgb(175,119,0); fill-rule: nonzero; opacity: 1;" transform=" matrix(1 0 0 1 0 0) " stroke-linecap="round"/>
	<path d="M 83.417 46.375 c -0.395 0.001 -0.789 -0.119 -1.128 -0.358 l -6.504 -4.58 l -6.504 4.581 c -0.673 0.475 -1.621 0.467 -2.286 -0.024 c -0.677 -0.497 -0.961 -1.37 -0.704 -2.172 l 2.417 -7.546 l -6.339 -4.666 c -0.682 -0.502 -0.964 -1.38 -0.699 -2.186 c 0.265 -0.805 1.012 -1.346 1.859 -1.346 h 7.845 l 2.556 -7.608 c 0.268 -0.798 1.014 -1.334 1.855 -1.334 c 0.84 0 1.585 0.535 1.854 1.331 l 2.558 7.611 h 7.845 c 0.847 0 1.594 0.541 1.859 1.346 c 0.265 0.805 -0.017 1.684 -0.699 2.186 l -6.339 4.666 l 2.417 7.546 c 0.257 0.802 -0.027 1.676 -0.705 2.174 C 84.23 46.248 83.824 46.375 83.417 46.375 z M 68.154 44.418 v 0.978 V 44.418 C 68.154 44.418 68.154 44.418 68.154 44.418 z M 63.528 30.034 l 6.906 5.083 c 0.338 0.249 0.48 0.686 0.352 1.086 l -2.632 8.215 l 7.067 -4.978 c 0.338 -0.238 0.789 -0.239 1.127 0 l 7.068 4.978 l -2.632 -8.215 c -0.128 -0.4 0.013 -0.837 0.352 -1.086 l 6.906 -5.083 h -8.548 c -0.42 0 -0.793 -0.268 -0.928 -0.666 l -2.782 -8.275 l -2.781 8.275 c -0.134 0.398 -0.507 0.667 -0.928 0.667 H 63.528 z" style="stroke: none; stroke-width: 1; stroke-dasharray: none; stroke-linecap: butt; stroke-linejoin: miter; stroke-miterlimit: 10; fill: rgb(175,119,0); fill-rule: nonzero; opacity: 1;" transform=" matrix(1 0 0 1 0 0) " stroke-linecap="round"/>
	<path d="M 6.583 46.375 c -0.419 0 -0.82 -0.132 -1.158 -0.38 c -0.679 -0.499 -0.962 -1.373 -0.705 -2.174 l 2.417 -7.545 l -6.34 -4.666 c -0.683 -0.502 -0.963 -1.38 -0.699 -2.186 c 0.264 -0.805 1.011 -1.346 1.859 -1.346 h 7.846 l 2.557 -7.609 c 0.267 -0.797 1.013 -1.333 1.854 -1.333 s 1.587 0.536 1.854 1.334 l 2.557 7.608 h 7.846 c 0.848 0 1.595 0.541 1.859 1.346 c 0.264 0.806 -0.017 1.684 -0.7 2.186 l -6.339 4.666 l 2.417 7.546 c 0.257 0.801 -0.026 1.675 -0.704 2.174 c -0.682 0.499 -1.599 0.507 -2.286 0.022 l -6.504 -4.58 l -6.505 4.581 C 7.379 46.251 6.989 46.375 6.583 46.375 z M 6.583 44.418 v 0.978 V 44.418 C 6.583 44.418 6.583 44.418 6.583 44.418 z M 14.214 39.261 c 0.197 0 0.395 0.06 0.563 0.179 l 7.068 4.978 l -2.632 -8.215 c -0.128 -0.4 0.013 -0.837 0.352 -1.086 l 6.906 -5.083 h -8.549 c -0.42 0 -0.793 -0.268 -0.927 -0.666 l -2.781 -8.275 l -2.781 8.275 c -0.134 0.398 -0.507 0.666 -0.927 0.666 H 1.957 l 6.906 5.083 c 0.338 0.249 0.48 0.686 0.352 1.086 l -2.632 8.215 l 7.068 -4.977 C 13.82 39.321 14.017 39.261 14.214 39.261 z" style="stroke: none; stroke-width: 1; stroke-dasharray: none; stroke-linecap: butt; stroke-linejoin: miter; stroke-miterlimit: 10; fill: rgb(175,119,0); fill-rule: nonzero; opacity: 1;" transform=" matrix(1 0 0 1 0 0) " stroke-linecap="round"/>
	<path d="M 21.977 70.865 c -0.407 0 -0.814 -0.127 -1.16 -0.381 c -0.678 -0.498 -0.962 -1.371 -0.704 -2.173 l 2.417 -7.545 L 16.19 56.1 c -0.683 -0.504 -0.963 -1.382 -0.699 -2.187 c 0.264 -0.804 1.011 -1.346 1.859 -1.346 h 7.846 l 2.558 -7.609 c 0.268 -0.797 1.013 -1.333 1.854 -1.333 s 1.586 0.535 1.854 1.333 l 2.557 7.609 h 7.846 c 0.848 0 1.595 0.542 1.859 1.347 c 0.264 0.803 -0.017 1.681 -0.698 2.185 l -6.341 4.667 l 2.417 7.546 c 0.257 0.802 -0.026 1.675 -0.705 2.173 c -0.661 0.486 -1.61 0.498 -2.285 0.021 l -6.504 -4.581 l -6.505 4.582 C 22.765 70.746 22.371 70.865 21.977 70.865 z M 37.239 68.908 v 0.978 V 68.908 C 37.239 68.908 37.239 68.908 37.239 68.908 z M 17.35 54.524 l 6.906 5.082 c 0.338 0.249 0.48 0.687 0.352 1.086 l -2.632 8.216 l 7.068 -4.978 c 0.337 -0.239 0.789 -0.239 1.126 0 l 7.066 4.976 l -2.63 -8.214 c -0.128 -0.399 0.013 -0.837 0.352 -1.086 l 6.906 -5.082 h -8.549 c -0.42 0 -0.793 -0.268 -0.927 -0.667 l -2.781 -8.274 l -2.782 8.274 c -0.134 0.398 -0.507 0.667 -0.927 0.667 H 17.35 z" style="stroke: none; stroke-width: 1; stroke-dasharray: none; stroke-linecap: butt; stroke-linejoin: miter; stroke-miterlimit: 10; fill: rgb(175,119,0); fill-rule: nonzero; opacity: 1;" transform=" matrix(1 0 0 1 0 0) " stroke-linecap="round"/>
	<path d="M 68.025 70.865 c -0.395 0 -0.789 -0.119 -1.128 -0.358 l -6.504 -4.581 l -6.505 4.581 c -0.674 0.475 -1.625 0.465 -2.288 -0.024 c -0.675 -0.496 -0.959 -1.369 -0.702 -2.171 l 2.417 -7.546 L 46.976 56.1 c -0.683 -0.504 -0.963 -1.382 -0.699 -2.187 c 0.264 -0.804 1.011 -1.346 1.859 -1.346 h 7.846 l 2.556 -7.608 c 0.268 -0.798 1.014 -1.333 1.855 -1.333 s 1.587 0.535 1.855 1.333 l 2.556 7.609 h 7.845 c 0.848 0 1.595 0.542 1.859 1.347 c 0.264 0.803 -0.016 1.681 -0.698 2.185 l -6.34 4.667 l 2.417 7.546 c 0.257 0.802 -0.027 1.676 -0.706 2.173 C 68.838 70.738 68.432 70.865 68.025 70.865 z M 52.761 68.908 v 0.978 V 68.908 L 52.761 68.908 z M 60.393 63.751 c 0.197 0 0.395 0.059 0.564 0.179 l 7.067 4.978 l -2.632 -8.216 c -0.128 -0.399 0.013 -0.837 0.352 -1.086 l 6.906 -5.082 h -8.548 c -0.42 0 -0.794 -0.268 -0.928 -0.667 l -2.781 -8.275 l -2.781 8.275 c -0.134 0.398 -0.507 0.667 -0.928 0.667 h -8.549 l 6.906 5.082 c 0.338 0.249 0.48 0.687 0.352 1.086 l -2.632 8.216 l 7.068 -4.978 C 59.998 63.81 60.196 63.751 60.393 63.751 z" style="stroke: none; stroke-width: 1; stroke-dasharray: none; stroke-linecap: butt; stroke-linejoin: miter; stroke-miterlimit: 10; fill: rgb(175,119,0); fill-rule: nonzero; opacity: 1;" transform=" matrix(1 0 0 1 0 0) " stroke-linecap="round"/>
</g>
</svg>